<?xml version="1.0" encoding="utf-8" standalone="no"?>
<!DOCTYPE svg PUBLIC "-//W3C//DTD SVG 1.1//EN"
  "http://www.w3.org/Graphics/SVG/1.1/DTD/svg11.dtd">
<svg xmlns:xlink="http://www.w3.org/1999/xlink" width="1181.568719pt" height="227.308828pt" viewBox="0 0 1181.568719 227.308828" xmlns="http://www.w3.org/2000/svg" version="1.1">
 <metadata>
  <rdf:RDF xmlns:dc="http://purl.org/dc/elements/1.1/" xmlns:cc="http://creativecommons.org/ns#" xmlns:rdf="http://www.w3.org/1999/02/22-rdf-syntax-ns#">
   <cc:Work>
    <dc:type rdf:resource="http://purl.org/dc/dcmitype/StillImage"/>
    <dc:date>2023-10-25T22:18:57.378813</dc:date>
    <dc:format>image/svg+xml</dc:format>
    <dc:creator>
     <cc:Agent>
      <dc:title>Matplotlib v3.5.3, https://matplotlib.org/</dc:title>
     </cc:Agent>
    </dc:creator>
   </cc:Work>
  </rdf:RDF>
 </metadata>
 <defs>
  <style type="text/css">*{stroke-linejoin: round; stroke-linecap: butt}</style>
 </defs>
 <g id="figure_1">
  <g id="patch_1">
   <path d="M 0 227.308828 
L 1181.568719 227.308828 
L 1181.568719 0 
L 0 0 
L 0 227.308828 
z
" style="fill: none"/>
  </g>
  <g id="axes_1">
   <g id="patch_2">
    <path d="M 55.776719 199.075547 
L 1174.368719 199.075547 
L 1174.368719 24.115547 
L 55.776719 24.115547 
L 55.776719 199.075547 
z
" style="fill: none"/>
   </g>
   <g id="matplotlib.axis_1">
    <g id="xtick_1">
     <g id="line2d_1">
      <defs>
       <path id="mb527fe2071" d="M 0 0 
L 0 3.5 
" style="stroke: #000000; stroke-width: 0.8"/>
      </defs>
      <g>
       <use xlink:href="#mb527fe2071" x="93.03837" y="199.075547" style="stroke: #000000; stroke-width: 0.8"/>
      </g>
     </g>
     <g id="text_1">
      <!-- 2-bit -->
      <g transform="translate(76.35091 217.093281)scale(0.145 -0.145)">
       <defs>
        <path id="DejaVuSans-32" d="M 1228 531 
L 3431 531 
L 3431 0 
L 469 0 
L 469 531 
Q 828 903 1448 1529 
Q 2069 2156 2228 2338 
Q 2531 2678 2651 2914 
Q 2772 3150 2772 3378 
Q 2772 3750 2511 3984 
Q 2250 4219 1831 4219 
Q 1534 4219 1204 4116 
Q 875 4013 500 3803 
L 500 4441 
Q 881 4594 1212 4672 
Q 1544 4750 1819 4750 
Q 2544 4750 2975 4387 
Q 3406 4025 3406 3419 
Q 3406 3131 3298 2873 
Q 3191 2616 2906 2266 
Q 2828 2175 2409 1742 
Q 1991 1309 1228 531 
z
" transform="scale(0.015625)"/>
        <path id="DejaVuSans-2d" d="M 313 2009 
L 1997 2009 
L 1997 1497 
L 313 1497 
L 313 2009 
z
" transform="scale(0.015625)"/>
        <path id="DejaVuSans-62" d="M 3116 1747 
Q 3116 2381 2855 2742 
Q 2594 3103 2138 3103 
Q 1681 3103 1420 2742 
Q 1159 2381 1159 1747 
Q 1159 1113 1420 752 
Q 1681 391 2138 391 
Q 2594 391 2855 752 
Q 3116 1113 3116 1747 
z
M 1159 2969 
Q 1341 3281 1617 3432 
Q 1894 3584 2278 3584 
Q 2916 3584 3314 3078 
Q 3713 2572 3713 1747 
Q 3713 922 3314 415 
Q 2916 -91 2278 -91 
Q 1894 -91 1617 61 
Q 1341 213 1159 525 
L 1159 0 
L 581 0 
L 581 4863 
L 1159 4863 
L 1159 2969 
z
" transform="scale(0.015625)"/>
        <path id="DejaVuSans-69" d="M 603 3500 
L 1178 3500 
L 1178 0 
L 603 0 
L 603 3500 
z
M 603 4863 
L 1178 4863 
L 1178 4134 
L 603 4134 
L 603 4863 
z
" transform="scale(0.015625)"/>
        <path id="DejaVuSans-74" d="M 1172 4494 
L 1172 3500 
L 2356 3500 
L 2356 3053 
L 1172 3053 
L 1172 1153 
Q 1172 725 1289 603 
Q 1406 481 1766 481 
L 2356 481 
L 2356 0 
L 1766 0 
Q 1100 0 847 248 
Q 594 497 594 1153 
L 594 3053 
L 172 3053 
L 172 3500 
L 594 3500 
L 594 4494 
L 1172 4494 
z
" transform="scale(0.015625)"/>
       </defs>
       <use xlink:href="#DejaVuSans-32"/>
       <use xlink:href="#DejaVuSans-2d" x="63.623047"/>
       <use xlink:href="#DejaVuSans-62" x="99.707031"/>
       <use xlink:href="#DejaVuSans-69" x="163.183594"/>
       <use xlink:href="#DejaVuSans-74" x="190.966797"/>
      </g>
     </g>
    </g>
    <g id="xtick_2">
     <g id="line2d_2">
      <g>
       <use xlink:href="#mb527fe2071" x="162.64295" y="199.075547" style="stroke: #000000; stroke-width: 0.8"/>
      </g>
     </g>
     <g id="text_2">
      <!-- 4-bit -->
      <g transform="translate(145.955489 217.093281)scale(0.145 -0.145)">
       <defs>
        <path id="DejaVuSans-34" d="M 2419 4116 
L 825 1625 
L 2419 1625 
L 2419 4116 
z
M 2253 4666 
L 3047 4666 
L 3047 1625 
L 3713 1625 
L 3713 1100 
L 3047 1100 
L 3047 0 
L 2419 0 
L 2419 1100 
L 313 1100 
L 313 1709 
L 2253 4666 
z
" transform="scale(0.015625)"/>
       </defs>
       <use xlink:href="#DejaVuSans-34"/>
       <use xlink:href="#DejaVuSans-2d" x="63.623047"/>
       <use xlink:href="#DejaVuSans-62" x="99.707031"/>
       <use xlink:href="#DejaVuSans-69" x="163.183594"/>
       <use xlink:href="#DejaVuSans-74" x="190.966797"/>
      </g>
     </g>
    </g>
    <g id="xtick_3">
     <g id="line2d_3">
      <g>
       <use xlink:href="#mb527fe2071" x="232.24753" y="199.075547" style="stroke: #000000; stroke-width: 0.8"/>
      </g>
     </g>
     <g id="text_3">
      <!-- 8-bit -->
      <g transform="translate(215.560069 217.093281)scale(0.145 -0.145)">
       <defs>
        <path id="DejaVuSans-38" d="M 2034 2216 
Q 1584 2216 1326 1975 
Q 1069 1734 1069 1313 
Q 1069 891 1326 650 
Q 1584 409 2034 409 
Q 2484 409 2743 651 
Q 3003 894 3003 1313 
Q 3003 1734 2745 1975 
Q 2488 2216 2034 2216 
z
M 1403 2484 
Q 997 2584 770 2862 
Q 544 3141 544 3541 
Q 544 4100 942 4425 
Q 1341 4750 2034 4750 
Q 2731 4750 3128 4425 
Q 3525 4100 3525 3541 
Q 3525 3141 3298 2862 
Q 3072 2584 2669 2484 
Q 3125 2378 3379 2068 
Q 3634 1759 3634 1313 
Q 3634 634 3220 271 
Q 2806 -91 2034 -91 
Q 1263 -91 848 271 
Q 434 634 434 1313 
Q 434 1759 690 2068 
Q 947 2378 1403 2484 
z
M 1172 3481 
Q 1172 3119 1398 2916 
Q 1625 2713 2034 2713 
Q 2441 2713 2670 2916 
Q 2900 3119 2900 3481 
Q 2900 3844 2670 4047 
Q 2441 4250 2034 4250 
Q 1625 4250 1398 4047 
Q 1172 3844 1172 3481 
z
" transform="scale(0.015625)"/>
       </defs>
       <use xlink:href="#DejaVuSans-38"/>
       <use xlink:href="#DejaVuSans-2d" x="63.623047"/>
       <use xlink:href="#DejaVuSans-62" x="99.707031"/>
       <use xlink:href="#DejaVuSans-69" x="163.183594"/>
       <use xlink:href="#DejaVuSans-74" x="190.966797"/>
      </g>
     </g>
    </g>
    <g id="xtick_4">
     <g id="line2d_4">
      <g>
       <use xlink:href="#mb527fe2071" x="301.85211" y="199.075547" style="stroke: #000000; stroke-width: 0.8"/>
      </g>
     </g>
     <g id="text_4">
      <!-- 2-bit -->
      <g transform="translate(285.164649 217.093281)scale(0.145 -0.145)">
       <use xlink:href="#DejaVuSans-32"/>
       <use xlink:href="#DejaVuSans-2d" x="63.623047"/>
       <use xlink:href="#DejaVuSans-62" x="99.707031"/>
       <use xlink:href="#DejaVuSans-69" x="163.183594"/>
       <use xlink:href="#DejaVuSans-74" x="190.966797"/>
      </g>
     </g>
    </g>
    <g id="xtick_5">
     <g id="line2d_5">
      <g>
       <use xlink:href="#mb527fe2071" x="371.45669" y="199.075547" style="stroke: #000000; stroke-width: 0.8"/>
      </g>
     </g>
     <g id="text_5">
      <!-- 4-bit -->
      <g transform="translate(354.769229 217.093281)scale(0.145 -0.145)">
       <use xlink:href="#DejaVuSans-34"/>
       <use xlink:href="#DejaVuSans-2d" x="63.623047"/>
       <use xlink:href="#DejaVuSans-62" x="99.707031"/>
       <use xlink:href="#DejaVuSans-69" x="163.183594"/>
       <use xlink:href="#DejaVuSans-74" x="190.966797"/>
      </g>
     </g>
    </g>
    <g id="xtick_6">
     <g id="line2d_6">
      <g>
       <use xlink:href="#mb527fe2071" x="441.061269" y="199.075547" style="stroke: #000000; stroke-width: 0.8"/>
      </g>
     </g>
     <g id="text_6">
      <!-- 8-bit -->
      <g transform="translate(424.373808 217.093281)scale(0.145 -0.145)">
       <use xlink:href="#DejaVuSans-38"/>
       <use xlink:href="#DejaVuSans-2d" x="63.623047"/>
       <use xlink:href="#DejaVuSans-62" x="99.707031"/>
       <use xlink:href="#DejaVuSans-69" x="163.183594"/>
       <use xlink:href="#DejaVuSans-74" x="190.966797"/>
      </g>
     </g>
    </g>
    <g id="xtick_7">
     <g id="line2d_7">
      <g>
       <use xlink:href="#mb527fe2071" x="510.665849" y="199.075547" style="stroke: #000000; stroke-width: 0.8"/>
      </g>
     </g>
     <g id="text_7">
      <!-- 2-bit -->
      <g transform="translate(493.978388 217.093281)scale(0.145 -0.145)">
       <use xlink:href="#DejaVuSans-32"/>
       <use xlink:href="#DejaVuSans-2d" x="63.623047"/>
       <use xlink:href="#DejaVuSans-62" x="99.707031"/>
       <use xlink:href="#DejaVuSans-69" x="163.183594"/>
       <use xlink:href="#DejaVuSans-74" x="190.966797"/>
      </g>
     </g>
    </g>
    <g id="xtick_8">
     <g id="line2d_8">
      <g>
       <use xlink:href="#mb527fe2071" x="580.270429" y="199.075547" style="stroke: #000000; stroke-width: 0.8"/>
      </g>
     </g>
     <g id="text_8">
      <!-- 4-bit -->
      <g transform="translate(563.582968 217.093281)scale(0.145 -0.145)">
       <use xlink:href="#DejaVuSans-34"/>
       <use xlink:href="#DejaVuSans-2d" x="63.623047"/>
       <use xlink:href="#DejaVuSans-62" x="99.707031"/>
       <use xlink:href="#DejaVuSans-69" x="163.183594"/>
       <use xlink:href="#DejaVuSans-74" x="190.966797"/>
      </g>
     </g>
    </g>
    <g id="xtick_9">
     <g id="line2d_9">
      <g>
       <use xlink:href="#mb527fe2071" x="649.875009" y="199.075547" style="stroke: #000000; stroke-width: 0.8"/>
      </g>
     </g>
     <g id="text_9">
      <!-- 8-bit -->
      <g transform="translate(633.187548 217.093281)scale(0.145 -0.145)">
       <use xlink:href="#DejaVuSans-38"/>
       <use xlink:href="#DejaVuSans-2d" x="63.623047"/>
       <use xlink:href="#DejaVuSans-62" x="99.707031"/>
       <use xlink:href="#DejaVuSans-69" x="163.183594"/>
       <use xlink:href="#DejaVuSans-74" x="190.966797"/>
      </g>
     </g>
    </g>
    <g id="xtick_10">
     <g id="line2d_10">
      <g>
       <use xlink:href="#mb527fe2071" x="719.479588" y="199.075547" style="stroke: #000000; stroke-width: 0.8"/>
      </g>
     </g>
     <g id="text_10">
      <!-- 2-bit -->
      <g transform="translate(702.792127 217.093281)scale(0.145 -0.145)">
       <use xlink:href="#DejaVuSans-32"/>
       <use xlink:href="#DejaVuSans-2d" x="63.623047"/>
       <use xlink:href="#DejaVuSans-62" x="99.707031"/>
       <use xlink:href="#DejaVuSans-69" x="163.183594"/>
       <use xlink:href="#DejaVuSans-74" x="190.966797"/>
      </g>
     </g>
    </g>
    <g id="xtick_11">
     <g id="line2d_11">
      <g>
       <use xlink:href="#mb527fe2071" x="789.084168" y="199.075547" style="stroke: #000000; stroke-width: 0.8"/>
      </g>
     </g>
     <g id="text_11">
      <!-- 4-bit -->
      <g transform="translate(772.396707 217.093281)scale(0.145 -0.145)">
       <use xlink:href="#DejaVuSans-34"/>
       <use xlink:href="#DejaVuSans-2d" x="63.623047"/>
       <use xlink:href="#DejaVuSans-62" x="99.707031"/>
       <use xlink:href="#DejaVuSans-69" x="163.183594"/>
       <use xlink:href="#DejaVuSans-74" x="190.966797"/>
      </g>
     </g>
    </g>
    <g id="xtick_12">
     <g id="line2d_12">
      <g>
       <use xlink:href="#mb527fe2071" x="858.688748" y="199.075547" style="stroke: #000000; stroke-width: 0.8"/>
      </g>
     </g>
     <g id="text_12">
      <!-- 8-bit -->
      <g transform="translate(842.001287 217.093281)scale(0.145 -0.145)">
       <use xlink:href="#DejaVuSans-38"/>
       <use xlink:href="#DejaVuSans-2d" x="63.623047"/>
       <use xlink:href="#DejaVuSans-62" x="99.707031"/>
       <use xlink:href="#DejaVuSans-69" x="163.183594"/>
       <use xlink:href="#DejaVuSans-74" x="190.966797"/>
      </g>
     </g>
    </g>
    <g id="xtick_13">
     <g id="line2d_13">
      <g>
       <use xlink:href="#mb527fe2071" x="928.293328" y="199.075547" style="stroke: #000000; stroke-width: 0.8"/>
      </g>
     </g>
     <g id="text_13">
      <!-- 2-bit -->
      <g transform="translate(911.605867 217.093281)scale(0.145 -0.145)">
       <use xlink:href="#DejaVuSans-32"/>
       <use xlink:href="#DejaVuSans-2d" x="63.623047"/>
       <use xlink:href="#DejaVuSans-62" x="99.707031"/>
       <use xlink:href="#DejaVuSans-69" x="163.183594"/>
       <use xlink:href="#DejaVuSans-74" x="190.966797"/>
      </g>
     </g>
    </g>
    <g id="xtick_14">
     <g id="line2d_14">
      <g>
       <use xlink:href="#mb527fe2071" x="997.897907" y="199.075547" style="stroke: #000000; stroke-width: 0.8"/>
      </g>
     </g>
     <g id="text_14">
      <!-- 4-bit -->
      <g transform="translate(981.210447 217.093281)scale(0.145 -0.145)">
       <use xlink:href="#DejaVuSans-34"/>
       <use xlink:href="#DejaVuSans-2d" x="63.623047"/>
       <use xlink:href="#DejaVuSans-62" x="99.707031"/>
       <use xlink:href="#DejaVuSans-69" x="163.183594"/>
       <use xlink:href="#DejaVuSans-74" x="190.966797"/>
      </g>
     </g>
    </g>
    <g id="xtick_15">
     <g id="line2d_15">
      <g>
       <use xlink:href="#mb527fe2071" x="1067.502487" y="199.075547" style="stroke: #000000; stroke-width: 0.8"/>
      </g>
     </g>
     <g id="text_15">
      <!-- 8-bit -->
      <g transform="translate(1050.815026 217.093281)scale(0.145 -0.145)">
       <use xlink:href="#DejaVuSans-38"/>
       <use xlink:href="#DejaVuSans-2d" x="63.623047"/>
       <use xlink:href="#DejaVuSans-62" x="99.707031"/>
       <use xlink:href="#DejaVuSans-69" x="163.183594"/>
       <use xlink:href="#DejaVuSans-74" x="190.966797"/>
      </g>
     </g>
    </g>
    <g id="xtick_16">
     <g id="line2d_16">
      <g>
       <use xlink:href="#mb527fe2071" x="1137.107067" y="199.075547" style="stroke: #000000; stroke-width: 0.8"/>
      </g>
     </g>
     <g id="text_16">
      <!-- GM -->
      <g transform="translate(1125.234059 217.093281)scale(0.145 -0.145)">
       <defs>
        <path id="DejaVuSans-47" d="M 3809 666 
L 3809 1919 
L 2778 1919 
L 2778 2438 
L 4434 2438 
L 4434 434 
Q 4069 175 3628 42 
Q 3188 -91 2688 -91 
Q 1594 -91 976 548 
Q 359 1188 359 2328 
Q 359 3472 976 4111 
Q 1594 4750 2688 4750 
Q 3144 4750 3555 4637 
Q 3966 4525 4313 4306 
L 4313 3634 
Q 3963 3931 3569 4081 
Q 3175 4231 2741 4231 
Q 1884 4231 1454 3753 
Q 1025 3275 1025 2328 
Q 1025 1384 1454 906 
Q 1884 428 2741 428 
Q 3075 428 3337 486 
Q 3600 544 3809 666 
z
" transform="scale(0.015625)"/>
        <path id="DejaVuSans-4d" d="M 628 4666 
L 1569 4666 
L 2759 1491 
L 3956 4666 
L 4897 4666 
L 4897 0 
L 4281 0 
L 4281 4097 
L 3078 897 
L 2444 897 
L 1241 4097 
L 1241 0 
L 628 0 
L 628 4666 
z
" transform="scale(0.015625)"/>
       </defs>
       <use xlink:href="#DejaVuSans-47"/>
       <use xlink:href="#DejaVuSans-4d" x="77.490234"/>
      </g>
     </g>
    </g>
   </g>
   <g id="matplotlib.axis_2">
    <g id="ytick_1">
     <g id="line2d_17">
      <path d="M 55.776719 199.075547 
L 1174.368719 199.075547 
" clip-path="url(#pda336e3e12)" style="fill: none; stroke-dasharray: 2.22,0.96; stroke-dashoffset: 0; stroke: #808080; stroke-width: 0.6"/>
     </g>
     <g id="line2d_18">
      <defs>
       <path id="m283806505d" d="M 0 0 
L -3.5 0 
" style="stroke: #000000; stroke-width: 0.8"/>
      </defs>
      <g>
       <use xlink:href="#m283806505d" x="55.776719" y="199.075547" style="stroke: #000000; stroke-width: 0.8"/>
      </g>
     </g>
     <g id="text_17">
      <!-- 0.5 -->
      <g transform="translate(25.717188 204.584414)scale(0.145 -0.145)">
       <defs>
        <path id="DejaVuSans-30" d="M 2034 4250 
Q 1547 4250 1301 3770 
Q 1056 3291 1056 2328 
Q 1056 1369 1301 889 
Q 1547 409 2034 409 
Q 2525 409 2770 889 
Q 3016 1369 3016 2328 
Q 3016 3291 2770 3770 
Q 2525 4250 2034 4250 
z
M 2034 4750 
Q 2819 4750 3233 4129 
Q 3647 3509 3647 2328 
Q 3647 1150 3233 529 
Q 2819 -91 2034 -91 
Q 1250 -91 836 529 
Q 422 1150 422 2328 
Q 422 3509 836 4129 
Q 1250 4750 2034 4750 
z
" transform="scale(0.015625)"/>
        <path id="DejaVuSans-2e" d="M 684 794 
L 1344 794 
L 1344 0 
L 684 0 
L 684 794 
z
" transform="scale(0.015625)"/>
        <path id="DejaVuSans-35" d="M 691 4666 
L 3169 4666 
L 3169 4134 
L 1269 4134 
L 1269 2991 
Q 1406 3038 1543 3061 
Q 1681 3084 1819 3084 
Q 2600 3084 3056 2656 
Q 3513 2228 3513 1497 
Q 3513 744 3044 326 
Q 2575 -91 1722 -91 
Q 1428 -91 1123 -41 
Q 819 9 494 109 
L 494 744 
Q 775 591 1075 516 
Q 1375 441 1709 441 
Q 2250 441 2565 725 
Q 2881 1009 2881 1497 
Q 2881 1984 2565 2268 
Q 2250 2553 1709 2553 
Q 1456 2553 1204 2497 
Q 953 2441 691 2322 
L 691 4666 
z
" transform="scale(0.015625)"/>
       </defs>
       <use xlink:href="#DejaVuSans-30"/>
       <use xlink:href="#DejaVuSans-2e" x="63.623047"/>
       <use xlink:href="#DejaVuSans-35" x="95.410156"/>
      </g>
     </g>
    </g>
    <g id="ytick_2">
     <g id="line2d_19">
      <path d="M 55.776719 164.097538 
L 1174.368719 164.097538 
" clip-path="url(#pda336e3e12)" style="fill: none; stroke-dasharray: 2.22,0.96; stroke-dashoffset: 0; stroke: #808080; stroke-width: 0.6"/>
     </g>
     <g id="line2d_20">
      <g>
       <use xlink:href="#m283806505d" x="55.776719" y="164.097538" style="stroke: #000000; stroke-width: 0.8"/>
      </g>
     </g>
     <g id="text_18">
      <!-- 1.0 -->
      <g transform="translate(25.717188 169.606405)scale(0.145 -0.145)">
       <defs>
        <path id="DejaVuSans-31" d="M 794 531 
L 1825 531 
L 1825 4091 
L 703 3866 
L 703 4441 
L 1819 4666 
L 2450 4666 
L 2450 531 
L 3481 531 
L 3481 0 
L 794 0 
L 794 531 
z
" transform="scale(0.015625)"/>
       </defs>
       <use xlink:href="#DejaVuSans-31"/>
       <use xlink:href="#DejaVuSans-2e" x="63.623047"/>
       <use xlink:href="#DejaVuSans-30" x="95.410156"/>
      </g>
     </g>
    </g>
    <g id="ytick_3">
     <g id="line2d_21">
      <path d="M 55.776719 129.119529 
L 1174.368719 129.119529 
" clip-path="url(#pda336e3e12)" style="fill: none; stroke-dasharray: 2.22,0.96; stroke-dashoffset: 0; stroke: #808080; stroke-width: 0.6"/>
     </g>
     <g id="line2d_22">
      <g>
       <use xlink:href="#m283806505d" x="55.776719" y="129.119529" style="stroke: #000000; stroke-width: 0.8"/>
      </g>
     </g>
     <g id="text_19">
      <!-- 1.5 -->
      <g transform="translate(25.717188 134.628396)scale(0.145 -0.145)">
       <use xlink:href="#DejaVuSans-31"/>
       <use xlink:href="#DejaVuSans-2e" x="63.623047"/>
       <use xlink:href="#DejaVuSans-35" x="95.410156"/>
      </g>
     </g>
    </g>
    <g id="ytick_4">
     <g id="line2d_23">
      <path d="M 55.776719 94.14152 
L 1174.368719 94.14152 
" clip-path="url(#pda336e3e12)" style="fill: none; stroke-dasharray: 2.22,0.96; stroke-dashoffset: 0; stroke: #808080; stroke-width: 0.6"/>
     </g>
     <g id="line2d_24">
      <g>
       <use xlink:href="#m283806505d" x="55.776719" y="94.14152" style="stroke: #000000; stroke-width: 0.8"/>
      </g>
     </g>
     <g id="text_20">
      <!-- 2.0 -->
      <g transform="translate(25.717188 99.650388)scale(0.145 -0.145)">
       <use xlink:href="#DejaVuSans-32"/>
       <use xlink:href="#DejaVuSans-2e" x="63.623047"/>
       <use xlink:href="#DejaVuSans-30" x="95.410156"/>
      </g>
     </g>
    </g>
    <g id="ytick_5">
     <g id="line2d_25">
      <path d="M 55.776719 59.163512 
L 1174.368719 59.163512 
" clip-path="url(#pda336e3e12)" style="fill: none; stroke-dasharray: 2.22,0.96; stroke-dashoffset: 0; stroke: #808080; stroke-width: 0.6"/>
     </g>
     <g id="line2d_26">
      <g>
       <use xlink:href="#m283806505d" x="55.776719" y="59.163512" style="stroke: #000000; stroke-width: 0.8"/>
      </g>
     </g>
     <g id="text_21">
      <!-- 2.5 -->
      <g transform="translate(25.717188 64.672379)scale(0.145 -0.145)">
       <use xlink:href="#DejaVuSans-32"/>
       <use xlink:href="#DejaVuSans-2e" x="63.623047"/>
       <use xlink:href="#DejaVuSans-35" x="95.410156"/>
      </g>
     </g>
    </g>
    <g id="ytick_6">
     <g id="line2d_27">
      <path d="M 55.776719 24.185503 
L 1174.368719 24.185503 
" clip-path="url(#pda336e3e12)" style="fill: none; stroke-dasharray: 2.22,0.96; stroke-dashoffset: 0; stroke: #808080; stroke-width: 0.6"/>
     </g>
     <g id="line2d_28">
      <g>
       <use xlink:href="#m283806505d" x="55.776719" y="24.185503" style="stroke: #000000; stroke-width: 0.8"/>
      </g>
     </g>
     <g id="text_22">
      <!-- 3.0 -->
      <g transform="translate(25.717188 29.69437)scale(0.145 -0.145)">
       <defs>
        <path id="DejaVuSans-33" d="M 2597 2516 
Q 3050 2419 3304 2112 
Q 3559 1806 3559 1356 
Q 3559 666 3084 287 
Q 2609 -91 1734 -91 
Q 1441 -91 1130 -33 
Q 819 25 488 141 
L 488 750 
Q 750 597 1062 519 
Q 1375 441 1716 441 
Q 2309 441 2620 675 
Q 2931 909 2931 1356 
Q 2931 1769 2642 2001 
Q 2353 2234 1838 2234 
L 1294 2234 
L 1294 2753 
L 1863 2753 
Q 2328 2753 2575 2939 
Q 2822 3125 2822 3475 
Q 2822 3834 2567 4026 
Q 2313 4219 1838 4219 
Q 1578 4219 1281 4162 
Q 984 4106 628 3988 
L 628 4550 
Q 988 4650 1302 4700 
Q 1616 4750 1894 4750 
Q 2613 4750 3031 4423 
Q 3450 4097 3450 3541 
Q 3450 3153 3228 2886 
Q 3006 2619 2597 2516 
z
" transform="scale(0.015625)"/>
       </defs>
       <use xlink:href="#DejaVuSans-33"/>
       <use xlink:href="#DejaVuSans-2e" x="63.623047"/>
       <use xlink:href="#DejaVuSans-30" x="95.410156"/>
      </g>
     </g>
    </g>
    <g id="text_23">
     <!-- Speedup over DLA -->
     <g transform="translate(18.597656 189.473672)rotate(-90)scale(0.15 -0.15)">
      <defs>
       <path id="DejaVuSans-Bold-53" d="M 3834 4519 
L 3834 3531 
Q 3450 3703 3084 3790 
Q 2719 3878 2394 3878 
Q 1963 3878 1756 3759 
Q 1550 3641 1550 3391 
Q 1550 3203 1689 3098 
Q 1828 2994 2194 2919 
L 2706 2816 
Q 3484 2659 3812 2340 
Q 4141 2022 4141 1434 
Q 4141 663 3683 286 
Q 3225 -91 2284 -91 
Q 1841 -91 1394 -6 
Q 947 78 500 244 
L 500 1259 
Q 947 1022 1364 901 
Q 1781 781 2169 781 
Q 2563 781 2772 912 
Q 2981 1044 2981 1288 
Q 2981 1506 2839 1625 
Q 2697 1744 2272 1838 
L 1806 1941 
Q 1106 2091 782 2419 
Q 459 2747 459 3303 
Q 459 4000 909 4375 
Q 1359 4750 2203 4750 
Q 2588 4750 2994 4692 
Q 3400 4634 3834 4519 
z
" transform="scale(0.015625)"/>
       <path id="DejaVuSans-Bold-70" d="M 1656 506 
L 1656 -1331 
L 538 -1331 
L 538 3500 
L 1656 3500 
L 1656 2988 
Q 1888 3294 2169 3439 
Q 2450 3584 2816 3584 
Q 3463 3584 3878 3070 
Q 4294 2556 4294 1747 
Q 4294 938 3878 423 
Q 3463 -91 2816 -91 
Q 2450 -91 2169 54 
Q 1888 200 1656 506 
z
M 2400 2772 
Q 2041 2772 1848 2508 
Q 1656 2244 1656 1747 
Q 1656 1250 1848 986 
Q 2041 722 2400 722 
Q 2759 722 2948 984 
Q 3138 1247 3138 1747 
Q 3138 2247 2948 2509 
Q 2759 2772 2400 2772 
z
" transform="scale(0.015625)"/>
       <path id="DejaVuSans-Bold-65" d="M 4031 1759 
L 4031 1441 
L 1416 1441 
Q 1456 1047 1700 850 
Q 1944 653 2381 653 
Q 2734 653 3104 758 
Q 3475 863 3866 1075 
L 3866 213 
Q 3469 63 3072 -14 
Q 2675 -91 2278 -91 
Q 1328 -91 801 392 
Q 275 875 275 1747 
Q 275 2603 792 3093 
Q 1309 3584 2216 3584 
Q 3041 3584 3536 3087 
Q 4031 2591 4031 1759 
z
M 2881 2131 
Q 2881 2450 2695 2645 
Q 2509 2841 2209 2841 
Q 1884 2841 1681 2658 
Q 1478 2475 1428 2131 
L 2881 2131 
z
" transform="scale(0.015625)"/>
       <path id="DejaVuSans-Bold-64" d="M 2919 2988 
L 2919 4863 
L 4044 4863 
L 4044 0 
L 2919 0 
L 2919 506 
Q 2688 197 2409 53 
Q 2131 -91 1766 -91 
Q 1119 -91 703 423 
Q 288 938 288 1747 
Q 288 2556 703 3070 
Q 1119 3584 1766 3584 
Q 2128 3584 2408 3439 
Q 2688 3294 2919 2988 
z
M 2181 722 
Q 2541 722 2730 984 
Q 2919 1247 2919 1747 
Q 2919 2247 2730 2509 
Q 2541 2772 2181 2772 
Q 1825 2772 1636 2509 
Q 1447 2247 1447 1747 
Q 1447 1247 1636 984 
Q 1825 722 2181 722 
z
" transform="scale(0.015625)"/>
       <path id="DejaVuSans-Bold-75" d="M 500 1363 
L 500 3500 
L 1625 3500 
L 1625 3150 
Q 1625 2866 1622 2436 
Q 1619 2006 1619 1863 
Q 1619 1441 1641 1255 
Q 1663 1069 1716 984 
Q 1784 875 1895 815 
Q 2006 756 2150 756 
Q 2500 756 2700 1025 
Q 2900 1294 2900 1772 
L 2900 3500 
L 4019 3500 
L 4019 0 
L 2900 0 
L 2900 506 
Q 2647 200 2364 54 
Q 2081 -91 1741 -91 
Q 1134 -91 817 281 
Q 500 653 500 1363 
z
" transform="scale(0.015625)"/>
       <path id="DejaVuSans-Bold-20" transform="scale(0.015625)"/>
       <path id="DejaVuSans-Bold-6f" d="M 2203 2784 
Q 1831 2784 1636 2517 
Q 1441 2250 1441 1747 
Q 1441 1244 1636 976 
Q 1831 709 2203 709 
Q 2569 709 2762 976 
Q 2956 1244 2956 1747 
Q 2956 2250 2762 2517 
Q 2569 2784 2203 2784 
z
M 2203 3584 
Q 3106 3584 3614 3096 
Q 4122 2609 4122 1747 
Q 4122 884 3614 396 
Q 3106 -91 2203 -91 
Q 1297 -91 786 396 
Q 275 884 275 1747 
Q 275 2609 786 3096 
Q 1297 3584 2203 3584 
z
" transform="scale(0.015625)"/>
       <path id="DejaVuSans-Bold-76" d="M 97 3500 
L 1216 3500 
L 2088 1081 
L 2956 3500 
L 4078 3500 
L 2700 0 
L 1472 0 
L 97 3500 
z
" transform="scale(0.015625)"/>
       <path id="DejaVuSans-Bold-72" d="M 3138 2547 
Q 2991 2616 2845 2648 
Q 2700 2681 2553 2681 
Q 2122 2681 1889 2404 
Q 1656 2128 1656 1613 
L 1656 0 
L 538 0 
L 538 3500 
L 1656 3500 
L 1656 2925 
Q 1872 3269 2151 3426 
Q 2431 3584 2822 3584 
Q 2878 3584 2943 3579 
Q 3009 3575 3134 3559 
L 3138 2547 
z
" transform="scale(0.015625)"/>
       <path id="DejaVuSans-Bold-44" d="M 1791 3756 
L 1791 909 
L 2222 909 
Q 2959 909 3348 1275 
Q 3738 1641 3738 2338 
Q 3738 3031 3350 3393 
Q 2963 3756 2222 3756 
L 1791 3756 
z
M 588 4666 
L 1856 4666 
Q 2919 4666 3439 4514 
Q 3959 4363 4331 4000 
Q 4659 3684 4818 3271 
Q 4978 2859 4978 2338 
Q 4978 1809 4818 1395 
Q 4659 981 4331 666 
Q 3956 303 3431 151 
Q 2906 0 1856 0 
L 588 0 
L 588 4666 
z
" transform="scale(0.015625)"/>
       <path id="DejaVuSans-Bold-4c" d="M 588 4666 
L 1791 4666 
L 1791 909 
L 3903 909 
L 3903 0 
L 588 0 
L 588 4666 
z
" transform="scale(0.015625)"/>
       <path id="DejaVuSans-Bold-41" d="M 3419 850 
L 1538 850 
L 1241 0 
L 31 0 
L 1759 4666 
L 3194 4666 
L 4922 0 
L 3713 0 
L 3419 850 
z
M 1838 1716 
L 3116 1716 
L 2478 3572 
L 1838 1716 
z
" transform="scale(0.015625)"/>
      </defs>
      <use xlink:href="#DejaVuSans-Bold-53"/>
      <use xlink:href="#DejaVuSans-Bold-70" x="72.021484"/>
      <use xlink:href="#DejaVuSans-Bold-65" x="143.603516"/>
      <use xlink:href="#DejaVuSans-Bold-65" x="211.425781"/>
      <use xlink:href="#DejaVuSans-Bold-64" x="279.248047"/>
      <use xlink:href="#DejaVuSans-Bold-75" x="350.830078"/>
      <use xlink:href="#DejaVuSans-Bold-70" x="422.021484"/>
      <use xlink:href="#DejaVuSans-Bold-20" x="493.603516"/>
      <use xlink:href="#DejaVuSans-Bold-6f" x="528.417969"/>
      <use xlink:href="#DejaVuSans-Bold-76" x="597.119141"/>
      <use xlink:href="#DejaVuSans-Bold-65" x="662.304688"/>
      <use xlink:href="#DejaVuSans-Bold-72" x="730.126953"/>
      <use xlink:href="#DejaVuSans-Bold-20" x="779.443359"/>
      <use xlink:href="#DejaVuSans-Bold-44" x="814.257812"/>
      <use xlink:href="#DejaVuSans-Bold-4c" x="897.265625"/>
      <use xlink:href="#DejaVuSans-Bold-41" x="960.986328"/>
     </g>
    </g>
   </g>
   <g id="patch_3">
    <path d="M 66.743307 234.053556 
L 77.570686 234.053556 
L 77.570686 132.61733 
L 66.743307 132.61733 
z
" clip-path="url(#pda336e3e12)" style="fill: url(#h4e927365d5); stroke: #008000; stroke-width: 0.5; stroke-linejoin: miter"/>
   </g>
   <g id="patch_4">
    <path d="M 136.347887 234.053556 
L 147.175266 234.053556 
L 147.175266 102.536243 
L 136.347887 102.536243 
z
" clip-path="url(#pda336e3e12)" style="fill: url(#h4e927365d5); stroke: #008000; stroke-width: 0.5; stroke-linejoin: miter"/>
   </g>
   <g id="patch_5">
    <path d="M 205.952467 234.053556 
L 216.779846 234.053556 
L 216.779846 111.630525 
L 205.952467 111.630525 
z
" clip-path="url(#pda336e3e12)" style="fill: url(#h4e927365d5); stroke: #008000; stroke-width: 0.5; stroke-linejoin: miter"/>
   </g>
   <g id="patch_6">
    <path d="M 275.557046 234.053556 
L 286.384425 234.053556 
L 286.384425 154.303696 
L 275.557046 154.303696 
z
" clip-path="url(#pda336e3e12)" style="fill: url(#h4e927365d5); stroke: #008000; stroke-width: 0.5; stroke-linejoin: miter"/>
   </g>
   <g id="patch_7">
    <path d="M 345.161626 234.053556 
L 355.989005 234.053556 
L 355.989005 134.016451 
L 345.161626 134.016451 
z
" clip-path="url(#pda336e3e12)" style="fill: url(#h4e927365d5); stroke: #008000; stroke-width: 0.5; stroke-linejoin: miter"/>
   </g>
   <g id="patch_8">
    <path d="M 414.766206 234.053556 
L 425.593585 234.053556 
L 425.593585 156.402376 
L 414.766206 156.402376 
z
" clip-path="url(#pda336e3e12)" style="fill: url(#h4e927365d5); stroke: #008000; stroke-width: 0.5; stroke-linejoin: miter"/>
   </g>
   <g id="patch_9">
    <path d="M 484.370786 234.053556 
L 495.198165 234.053556 
L 495.198165 164.097538 
L 484.370786 164.097538 
z
" clip-path="url(#pda336e3e12)" style="fill: url(#h4e927365d5); stroke: #008000; stroke-width: 0.5; stroke-linejoin: miter"/>
   </g>
   <g id="patch_10">
    <path d="M 553.975365 234.053556 
L 564.802744 234.053556 
L 564.802744 154.303696 
L 553.975365 154.303696 
z
" clip-path="url(#pda336e3e12)" style="fill: url(#h4e927365d5); stroke: #008000; stroke-width: 0.5; stroke-linejoin: miter"/>
   </g>
   <g id="patch_11">
    <path d="M 623.579945 234.053556 
L 634.407324 234.053556 
L 634.407324 163.397978 
L 623.579945 163.397978 
z
" clip-path="url(#pda336e3e12)" style="fill: url(#h4e927365d5); stroke: #008000; stroke-width: 0.5; stroke-linejoin: miter"/>
   </g>
   <g id="patch_12">
    <path d="M 693.184525 234.053556 
L 704.011904 234.053556 
L 704.011904 157.801496 
L 693.184525 157.801496 
z
" clip-path="url(#pda336e3e12)" style="fill: url(#h4e927365d5); stroke: #008000; stroke-width: 0.5; stroke-linejoin: miter"/>
   </g>
   <g id="patch_13">
    <path d="M 762.789105 234.053556 
L 773.616484 234.053556 
L 773.616484 141.711612 
L 762.789105 141.711612 
z
" clip-path="url(#pda336e3e12)" style="fill: url(#h4e927365d5); stroke: #008000; stroke-width: 0.5; stroke-linejoin: miter"/>
   </g>
   <g id="patch_14">
    <path d="M 832.393684 234.053556 
L 843.221064 234.053556 
L 843.221064 159.900177 
L 832.393684 159.900177 
z
" clip-path="url(#pda336e3e12)" style="fill: url(#h4e927365d5); stroke: #008000; stroke-width: 0.5; stroke-linejoin: miter"/>
   </g>
   <g id="patch_15">
    <path d="M 901.998264 234.053556 
L 912.825643 234.053556 
L 912.825643 150.106335 
L 901.998264 150.106335 
z
" clip-path="url(#pda336e3e12)" style="fill: url(#h4e927365d5); stroke: #008000; stroke-width: 0.5; stroke-linejoin: miter"/>
   </g>
   <g id="patch_16">
    <path d="M 971.602844 234.053556 
L 982.430223 234.053556 
L 982.430223 112.330085 
L 971.602844 112.330085 
z
" clip-path="url(#pda336e3e12)" style="fill: url(#h4e927365d5); stroke: #008000; stroke-width: 0.5; stroke-linejoin: miter"/>
   </g>
   <g id="patch_17">
    <path d="M 1041.207424 234.053556 
L 1052.034803 234.053556 
L 1052.034803 113.029645 
L 1041.207424 113.029645 
z
" clip-path="url(#pda336e3e12)" style="fill: url(#h4e927365d5); stroke: #008000; stroke-width: 0.5; stroke-linejoin: miter"/>
   </g>
   <g id="patch_18">
    <path d="M 1110.812004 234.053556 
L 1121.639383 234.053556 
L 1121.639383 140.545679 
L 1110.812004 140.545679 
z
" clip-path="url(#pda336e3e12)" style="fill: url(#h4e927365d5); stroke: #008000; stroke-width: 0.5; stroke-linejoin: miter"/>
   </g>
   <g id="patch_19">
    <path d="M 77.570686 228.308828 
L 77.570686 132.61733 
L 66.743307 132.61733 
L 66.743307 228.308828 
" clip-path="url(#pda336e3e12)" style="fill: none; stroke: #000000; stroke-width: 0.8; stroke-linejoin: miter"/>
   </g>
   <g id="patch_20">
    <path d="M 147.175266 228.308828 
L 147.175266 102.536243 
L 136.347887 102.536243 
L 136.347887 228.308828 
" clip-path="url(#pda336e3e12)" style="fill: none; stroke: #000000; stroke-width: 0.8; stroke-linejoin: miter"/>
   </g>
   <g id="patch_21">
    <path d="M 216.779846 228.308828 
L 216.779846 111.630525 
L 205.952467 111.630525 
L 205.952467 228.308828 
" clip-path="url(#pda336e3e12)" style="fill: none; stroke: #000000; stroke-width: 0.8; stroke-linejoin: miter"/>
   </g>
   <g id="patch_22">
    <path d="M 286.384425 228.308828 
L 286.384425 154.303696 
L 275.557046 154.303696 
L 275.557046 228.308828 
" clip-path="url(#pda336e3e12)" style="fill: none; stroke: #000000; stroke-width: 0.8; stroke-linejoin: miter"/>
   </g>
   <g id="patch_23">
    <path d="M 355.989005 228.308828 
L 355.989005 134.016451 
L 345.161626 134.016451 
L 345.161626 228.308828 
" clip-path="url(#pda336e3e12)" style="fill: none; stroke: #000000; stroke-width: 0.8; stroke-linejoin: miter"/>
   </g>
   <g id="patch_24">
    <path d="M 425.593585 228.308828 
L 425.593585 156.402376 
L 414.766206 156.402376 
L 414.766206 228.308828 
" clip-path="url(#pda336e3e12)" style="fill: none; stroke: #000000; stroke-width: 0.8; stroke-linejoin: miter"/>
   </g>
   <g id="patch_25">
    <path d="M 495.198165 228.308828 
L 495.198165 164.097538 
L 484.370786 164.097538 
L 484.370786 228.308828 
" clip-path="url(#pda336e3e12)" style="fill: none; stroke: #000000; stroke-width: 0.8; stroke-linejoin: miter"/>
   </g>
   <g id="patch_26">
    <path d="M 564.802744 228.308828 
L 564.802744 154.303696 
L 553.975365 154.303696 
L 553.975365 228.308828 
" clip-path="url(#pda336e3e12)" style="fill: none; stroke: #000000; stroke-width: 0.8; stroke-linejoin: miter"/>
   </g>
   <g id="patch_27">
    <path d="M 634.407324 228.308828 
L 634.407324 163.397978 
L 623.579945 163.397978 
L 623.579945 228.308828 
" clip-path="url(#pda336e3e12)" style="fill: none; stroke: #000000; stroke-width: 0.8; stroke-linejoin: miter"/>
   </g>
   <g id="patch_28">
    <path d="M 704.011904 228.308828 
L 704.011904 157.801496 
L 693.184525 157.801496 
L 693.184525 228.308828 
" clip-path="url(#pda336e3e12)" style="fill: none; stroke: #000000; stroke-width: 0.8; stroke-linejoin: miter"/>
   </g>
   <g id="patch_29">
    <path d="M 773.616484 228.308828 
L 773.616484 141.711612 
L 762.789105 141.711612 
L 762.789105 228.308828 
" clip-path="url(#pda336e3e12)" style="fill: none; stroke: #000000; stroke-width: 0.8; stroke-linejoin: miter"/>
   </g>
   <g id="patch_30">
    <path d="M 843.221064 228.308828 
L 843.221064 159.900177 
L 832.393684 159.900177 
L 832.393684 228.308828 
" clip-path="url(#pda336e3e12)" style="fill: none; stroke: #000000; stroke-width: 0.8; stroke-linejoin: miter"/>
   </g>
   <g id="patch_31">
    <path d="M 912.825643 228.308828 
L 912.825643 150.106335 
L 901.998264 150.106335 
L 901.998264 228.308828 
" clip-path="url(#pda336e3e12)" style="fill: none; stroke: #000000; stroke-width: 0.8; stroke-linejoin: miter"/>
   </g>
   <g id="patch_32">
    <path d="M 982.430223 228.308828 
L 982.430223 112.330085 
L 971.602844 112.330085 
L 971.602844 228.308828 
" clip-path="url(#pda336e3e12)" style="fill: none; stroke: #000000; stroke-width: 0.8; stroke-linejoin: miter"/>
   </g>
   <g id="patch_33">
    <path d="M 1052.034803 228.308828 
L 1052.034803 113.029645 
L 1041.207424 113.029645 
L 1041.207424 228.308828 
" clip-path="url(#pda336e3e12)" style="fill: none; stroke: #000000; stroke-width: 0.8; stroke-linejoin: miter"/>
   </g>
   <g id="patch_34">
    <path d="M 1121.639383 228.308828 
L 1121.639383 140.545679 
L 1110.812004 140.545679 
L 1110.812004 228.308828 
" clip-path="url(#pda336e3e12)" style="fill: none; stroke: #000000; stroke-width: 0.8; stroke-linejoin: miter"/>
   </g>
   <g id="patch_35">
    <path d="M 80.664223 234.053556 
L 91.491602 234.053556 
L 91.491602 103.935363 
L 80.664223 103.935363 
z
" clip-path="url(#pda336e3e12)" style="fill: url(#hfc5cd4f3ae); stroke: #ffa500; stroke-width: 0.5; stroke-linejoin: miter"/>
   </g>
   <g id="patch_36">
    <path d="M 150.268803 234.053556 
L 161.096182 234.053556 
L 161.096182 58.463952 
L 150.268803 58.463952 
z
" clip-path="url(#pda336e3e12)" style="fill: url(#hfc5cd4f3ae); stroke: #ffa500; stroke-width: 0.5; stroke-linejoin: miter"/>
   </g>
   <g id="patch_37">
    <path d="M 219.873382 234.053556 
L 230.700762 234.053556 
L 230.700762 78.051636 
L 219.873382 78.051636 
z
" clip-path="url(#pda336e3e12)" style="fill: url(#hfc5cd4f3ae); stroke: #ffa500; stroke-width: 0.5; stroke-linejoin: miter"/>
   </g>
   <g id="patch_38">
    <path d="M 289.477962 234.053556 
L 300.305341 234.053556 
L 300.305341 133.31689 
L 289.477962 133.31689 
z
" clip-path="url(#pda336e3e12)" style="fill: url(#hfc5cd4f3ae); stroke: #ffa500; stroke-width: 0.5; stroke-linejoin: miter"/>
   </g>
   <g id="patch_39">
    <path d="M 359.082542 234.053556 
L 369.909921 234.053556 
L 369.909921 97.639321 
L 359.082542 97.639321 
z
" clip-path="url(#pda336e3e12)" style="fill: url(#hfc5cd4f3ae); stroke: #ffa500; stroke-width: 0.5; stroke-linejoin: miter"/>
   </g>
   <g id="patch_40">
    <path d="M 428.687122 234.053556 
L 439.514501 234.053556 
L 439.514501 141.012052 
L 428.687122 141.012052 
z
" clip-path="url(#pda336e3e12)" style="fill: url(#hfc5cd4f3ae); stroke: #ffa500; stroke-width: 0.5; stroke-linejoin: miter"/>
   </g>
   <g id="patch_41">
    <path d="M 498.291702 234.053556 
L 509.119081 234.053556 
L 509.119081 152.205015 
L 498.291702 152.205015 
z
" clip-path="url(#pda336e3e12)" style="fill: url(#hfc5cd4f3ae); stroke: #ffa500; stroke-width: 0.5; stroke-linejoin: miter"/>
   </g>
   <g id="patch_42">
    <path d="M 567.896281 234.053556 
L 578.72366 234.053556 
L 578.72366 129.819089 
L 567.896281 129.819089 
z
" clip-path="url(#pda336e3e12)" style="fill: url(#hfc5cd4f3ae); stroke: #ffa500; stroke-width: 0.5; stroke-linejoin: miter"/>
   </g>
   <g id="patch_43">
    <path d="M 637.500861 234.053556 
L 648.32824 234.053556 
L 648.32824 151.505455 
L 637.500861 151.505455 
z
" clip-path="url(#pda336e3e12)" style="fill: url(#hfc5cd4f3ae); stroke: #ffa500; stroke-width: 0.5; stroke-linejoin: miter"/>
   </g>
   <g id="patch_44">
    <path d="M 707.105441 234.053556 
L 717.93282 234.053556 
L 717.93282 138.913372 
L 707.105441 138.913372 
z
" clip-path="url(#pda336e3e12)" style="fill: url(#hfc5cd4f3ae); stroke: #ffa500; stroke-width: 0.5; stroke-linejoin: miter"/>
   </g>
   <g id="patch_45">
    <path d="M 776.710021 234.053556 
L 787.5374 234.053556 
L 787.5374 115.128326 
L 776.710021 115.128326 
z
" clip-path="url(#pda336e3e12)" style="fill: url(#hfc5cd4f3ae); stroke: #ffa500; stroke-width: 0.5; stroke-linejoin: miter"/>
   </g>
   <g id="patch_46">
    <path d="M 846.3146 234.053556 
L 857.14198 234.053556 
L 857.14198 146.608534 
L 846.3146 146.608534 
z
" clip-path="url(#pda336e3e12)" style="fill: url(#hfc5cd4f3ae); stroke: #ffa500; stroke-width: 0.5; stroke-linejoin: miter"/>
   </g>
   <g id="patch_47">
    <path d="M 915.91918 234.053556 
L 926.746559 234.053556 
L 926.746559 115.128326 
L 915.91918 115.128326 
z
" clip-path="url(#pda336e3e12)" style="fill: url(#hfc5cd4f3ae); stroke: #ffa500; stroke-width: 0.5; stroke-linejoin: miter"/>
   </g>
   <g id="patch_48">
    <path d="M 985.52376 234.053556 
L 996.351139 234.053556 
L 996.351139 97.639321 
L 985.52376 97.639321 
z
" clip-path="url(#pda336e3e12)" style="fill: url(#hfc5cd4f3ae); stroke: #ffa500; stroke-width: 0.5; stroke-linejoin: miter"/>
   </g>
   <g id="patch_49">
    <path d="M 1055.12834 234.053556 
L 1065.955719 234.053556 
L 1065.955719 99.738002 
L 1055.12834 99.738002 
z
" clip-path="url(#pda336e3e12)" style="fill: url(#hfc5cd4f3ae); stroke: #ffa500; stroke-width: 0.5; stroke-linejoin: miter"/>
   </g>
   <g id="patch_50">
    <path d="M 1124.73292 234.053556 
L 1135.560299 234.053556 
L 1135.560299 117.273644 
L 1124.73292 117.273644 
z
" clip-path="url(#pda336e3e12)" style="fill: url(#hfc5cd4f3ae); stroke: #ffa500; stroke-width: 0.5; stroke-linejoin: miter"/>
   </g>
   <g id="patch_51">
    <path d="M 91.491602 228.308828 
L 91.491602 103.935363 
L 80.664223 103.935363 
L 80.664223 228.308828 
" clip-path="url(#pda336e3e12)" style="fill: none; stroke: #000000; stroke-width: 0.8; stroke-linejoin: miter"/>
   </g>
   <g id="patch_52">
    <path d="M 161.096182 228.308828 
L 161.096182 58.463952 
L 150.268803 58.463952 
L 150.268803 228.308828 
" clip-path="url(#pda336e3e12)" style="fill: none; stroke: #000000; stroke-width: 0.8; stroke-linejoin: miter"/>
   </g>
   <g id="patch_53">
    <path d="M 230.700762 228.308828 
L 230.700762 78.051636 
L 219.873382 78.051636 
L 219.873382 228.308828 
" clip-path="url(#pda336e3e12)" style="fill: none; stroke: #000000; stroke-width: 0.8; stroke-linejoin: miter"/>
   </g>
   <g id="patch_54">
    <path d="M 300.305341 228.308828 
L 300.305341 133.31689 
L 289.477962 133.31689 
L 289.477962 228.308828 
" clip-path="url(#pda336e3e12)" style="fill: none; stroke: #000000; stroke-width: 0.8; stroke-linejoin: miter"/>
   </g>
   <g id="patch_55">
    <path d="M 369.909921 228.308828 
L 369.909921 97.639321 
L 359.082542 97.639321 
L 359.082542 228.308828 
" clip-path="url(#pda336e3e12)" style="fill: none; stroke: #000000; stroke-width: 0.8; stroke-linejoin: miter"/>
   </g>
   <g id="patch_56">
    <path d="M 439.514501 228.308828 
L 439.514501 141.012052 
L 428.687122 141.012052 
L 428.687122 228.308828 
" clip-path="url(#pda336e3e12)" style="fill: none; stroke: #000000; stroke-width: 0.8; stroke-linejoin: miter"/>
   </g>
   <g id="patch_57">
    <path d="M 509.119081 228.308828 
L 509.119081 152.205015 
L 498.291702 152.205015 
L 498.291702 228.308828 
" clip-path="url(#pda336e3e12)" style="fill: none; stroke: #000000; stroke-width: 0.8; stroke-linejoin: miter"/>
   </g>
   <g id="patch_58">
    <path d="M 578.72366 228.308828 
L 578.72366 129.819089 
L 567.896281 129.819089 
L 567.896281 228.308828 
" clip-path="url(#pda336e3e12)" style="fill: none; stroke: #000000; stroke-width: 0.8; stroke-linejoin: miter"/>
   </g>
   <g id="patch_59">
    <path d="M 648.32824 228.308828 
L 648.32824 151.505455 
L 637.500861 151.505455 
L 637.500861 228.308828 
" clip-path="url(#pda336e3e12)" style="fill: none; stroke: #000000; stroke-width: 0.8; stroke-linejoin: miter"/>
   </g>
   <g id="patch_60">
    <path d="M 717.93282 228.308828 
L 717.93282 138.913372 
L 707.105441 138.913372 
L 707.105441 228.308828 
" clip-path="url(#pda336e3e12)" style="fill: none; stroke: #000000; stroke-width: 0.8; stroke-linejoin: miter"/>
   </g>
   <g id="patch_61">
    <path d="M 787.5374 228.308828 
L 787.5374 115.128326 
L 776.710021 115.128326 
L 776.710021 228.308828 
" clip-path="url(#pda336e3e12)" style="fill: none; stroke: #000000; stroke-width: 0.8; stroke-linejoin: miter"/>
   </g>
   <g id="patch_62">
    <path d="M 857.14198 228.308828 
L 857.14198 146.608534 
L 846.3146 146.608534 
L 846.3146 228.308828 
" clip-path="url(#pda336e3e12)" style="fill: none; stroke: #000000; stroke-width: 0.8; stroke-linejoin: miter"/>
   </g>
   <g id="patch_63">
    <path d="M 926.746559 228.308828 
L 926.746559 115.128326 
L 915.91918 115.128326 
L 915.91918 228.308828 
" clip-path="url(#pda336e3e12)" style="fill: none; stroke: #000000; stroke-width: 0.8; stroke-linejoin: miter"/>
   </g>
   <g id="patch_64">
    <path d="M 996.351139 228.308828 
L 996.351139 97.639321 
L 985.52376 97.639321 
L 985.52376 228.308828 
" clip-path="url(#pda336e3e12)" style="fill: none; stroke: #000000; stroke-width: 0.8; stroke-linejoin: miter"/>
   </g>
   <g id="patch_65">
    <path d="M 1065.955719 228.308828 
L 1065.955719 99.738002 
L 1055.12834 99.738002 
L 1055.12834 228.308828 
" clip-path="url(#pda336e3e12)" style="fill: none; stroke: #000000; stroke-width: 0.8; stroke-linejoin: miter"/>
   </g>
   <g id="patch_66">
    <path d="M 1135.560299 228.308828 
L 1135.560299 117.273644 
L 1124.73292 117.273644 
L 1124.73292 228.308828 
" clip-path="url(#pda336e3e12)" style="fill: none; stroke: #000000; stroke-width: 0.8; stroke-linejoin: miter"/>
   </g>
   <g id="patch_67">
    <path d="M 94.585139 234.053556 
L 105.412518 234.053556 
L 105.412518 43.773188 
L 94.585139 43.773188 
z
" clip-path="url(#pda336e3e12)" style="fill: url(#hccbe1bc988); stroke: #ff4040; stroke-width: 0.5; stroke-linejoin: miter"/>
   </g>
   <g id="patch_68">
    <path d="M 164.189719 234.053556 
L 175.017098 234.053556 
L 175.017098 45.172308 
L 164.189719 45.172308 
z
" clip-path="url(#pda336e3e12)" style="fill: url(#hccbe1bc988); stroke: #ff4040; stroke-width: 0.5; stroke-linejoin: miter"/>
   </g>
   <g id="patch_69">
    <path d="M 233.794298 234.053556 
L 244.621678 234.053556 
L 244.621678 72.455155 
L 233.794298 72.455155 
z
" clip-path="url(#pda336e3e12)" style="fill: url(#hccbe1bc988); stroke: #ff4040; stroke-width: 0.5; stroke-linejoin: miter"/>
   </g>
   <g id="patch_70">
    <path d="M 303.398878 234.053556 
L 314.226257 234.053556 
L 314.226257 104.634923 
L 303.398878 104.634923 
z
" clip-path="url(#pda336e3e12)" style="fill: url(#hccbe1bc988); stroke: #ff4040; stroke-width: 0.5; stroke-linejoin: miter"/>
   </g>
   <g id="patch_71">
    <path d="M 373.003458 234.053556 
L 383.830837 234.053556 
L 383.830837 72.455155 
L 373.003458 72.455155 
z
" clip-path="url(#pda336e3e12)" style="fill: url(#hccbe1bc988); stroke: #ff4040; stroke-width: 0.5; stroke-linejoin: miter"/>
   </g>
   <g id="patch_72">
    <path d="M 442.608038 234.053556 
L 453.435417 234.053556 
L 453.435417 121.424367 
L 442.608038 121.424367 
z
" clip-path="url(#pda336e3e12)" style="fill: url(#hccbe1bc988); stroke: #ff4040; stroke-width: 0.5; stroke-linejoin: miter"/>
   </g>
   <g id="patch_73">
    <path d="M 512.212618 234.053556 
L 523.039997 234.053556 
L 523.039997 110.231405 
L 512.212618 110.231405 
z
" clip-path="url(#pda336e3e12)" style="fill: url(#hccbe1bc988); stroke: #ff4040; stroke-width: 0.5; stroke-linejoin: miter"/>
   </g>
   <g id="patch_74">
    <path d="M 581.817197 234.053556 
L 592.644576 234.053556 
L 592.644576 67.558234 
L 581.817197 67.558234 
z
" clip-path="url(#pda336e3e12)" style="fill: url(#hccbe1bc988); stroke: #ff4040; stroke-width: 0.5; stroke-linejoin: miter"/>
   </g>
   <g id="patch_75">
    <path d="M 651.421777 234.053556 
L 662.249156 234.053556 
L 662.249156 120.724807 
L 651.421777 120.724807 
z
" clip-path="url(#pda336e3e12)" style="fill: url(#hccbe1bc988); stroke: #ff4040; stroke-width: 0.5; stroke-linejoin: miter"/>
   </g>
   <g id="patch_76">
    <path d="M 721.026357 234.053556 
L 731.853736 234.053556 
L 731.853736 75.952956 
L 721.026357 75.952956 
z
" clip-path="url(#pda336e3e12)" style="fill: url(#hccbe1bc988); stroke: #ff4040; stroke-width: 0.5; stroke-linejoin: miter"/>
   </g>
   <g id="patch_77">
    <path d="M 790.630937 234.053556 
L 801.458316 234.053556 
L 801.458316 64.060433 
L 790.630937 64.060433 
z
" clip-path="url(#pda336e3e12)" style="fill: url(#hccbe1bc988); stroke: #ff4040; stroke-width: 0.5; stroke-linejoin: miter"/>
   </g>
   <g id="patch_78">
    <path d="M 860.235516 234.053556 
L 871.062895 234.053556 
L 871.062895 119.325687 
L 860.235516 119.325687 
z
" clip-path="url(#pda336e3e12)" style="fill: url(#hccbe1bc988); stroke: #ff4040; stroke-width: 0.5; stroke-linejoin: miter"/>
   </g>
   <g id="patch_79">
    <path d="M 929.840096 234.053556 
L 940.667475 234.053556 
L 940.667475 60.562632 
L 929.840096 60.562632 
z
" clip-path="url(#pda336e3e12)" style="fill: url(#hccbe1bc988); stroke: #ff4040; stroke-width: 0.5; stroke-linejoin: miter"/>
   </g>
   <g id="patch_80">
    <path d="M 999.444676 234.053556 
L 1010.272055 234.053556 
L 1010.272055 58.463952 
L 999.444676 58.463952 
z
" clip-path="url(#pda336e3e12)" style="fill: url(#hccbe1bc988); stroke: #ff4040; stroke-width: 0.5; stroke-linejoin: miter"/>
   </g>
   <g id="patch_81">
    <path d="M 1069.049256 234.053556 
L 1079.876635 234.053556 
L 1079.876635 99.738002 
L 1069.049256 99.738002 
z
" clip-path="url(#pda336e3e12)" style="fill: url(#hccbe1bc988); stroke: #ff4040; stroke-width: 0.5; stroke-linejoin: miter"/>
   </g>
   <g id="patch_82">
    <path d="M 1138.653835 234.053556 
L 1149.481215 234.053556 
L 1149.481215 82.435547 
L 1138.653835 82.435547 
z
" clip-path="url(#pda336e3e12)" style="fill: url(#hccbe1bc988); stroke: #ff4040; stroke-width: 0.5; stroke-linejoin: miter"/>
   </g>
   <g id="patch_83">
    <path d="M 105.412518 228.308828 
L 105.412518 43.773188 
L 94.585139 43.773188 
L 94.585139 228.308828 
" clip-path="url(#pda336e3e12)" style="fill: none; stroke: #000000; stroke-width: 0.8; stroke-linejoin: miter"/>
   </g>
   <g id="patch_84">
    <path d="M 175.017098 228.308828 
L 175.017098 45.172308 
L 164.189719 45.172308 
L 164.189719 228.308828 
" clip-path="url(#pda336e3e12)" style="fill: none; stroke: #000000; stroke-width: 0.8; stroke-linejoin: miter"/>
   </g>
   <g id="patch_85">
    <path d="M 244.621678 228.308828 
L 244.621678 72.455155 
L 233.794298 72.455155 
L 233.794298 228.308828 
" clip-path="url(#pda336e3e12)" style="fill: none; stroke: #000000; stroke-width: 0.8; stroke-linejoin: miter"/>
   </g>
   <g id="patch_86">
    <path d="M 314.226257 228.308828 
L 314.226257 104.634923 
L 303.398878 104.634923 
L 303.398878 228.308828 
" clip-path="url(#pda336e3e12)" style="fill: none; stroke: #000000; stroke-width: 0.8; stroke-linejoin: miter"/>
   </g>
   <g id="patch_87">
    <path d="M 383.830837 228.308828 
L 383.830837 72.455155 
L 373.003458 72.455155 
L 373.003458 228.308828 
" clip-path="url(#pda336e3e12)" style="fill: none; stroke: #000000; stroke-width: 0.8; stroke-linejoin: miter"/>
   </g>
   <g id="patch_88">
    <path d="M 453.435417 228.308828 
L 453.435417 121.424367 
L 442.608038 121.424367 
L 442.608038 228.308828 
" clip-path="url(#pda336e3e12)" style="fill: none; stroke: #000000; stroke-width: 0.8; stroke-linejoin: miter"/>
   </g>
   <g id="patch_89">
    <path d="M 523.039997 228.308828 
L 523.039997 110.231405 
L 512.212618 110.231405 
L 512.212618 228.308828 
" clip-path="url(#pda336e3e12)" style="fill: none; stroke: #000000; stroke-width: 0.8; stroke-linejoin: miter"/>
   </g>
   <g id="patch_90">
    <path d="M 592.644576 228.308828 
L 592.644576 67.558234 
L 581.817197 67.558234 
L 581.817197 228.308828 
" clip-path="url(#pda336e3e12)" style="fill: none; stroke: #000000; stroke-width: 0.8; stroke-linejoin: miter"/>
   </g>
   <g id="patch_91">
    <path d="M 662.249156 228.308828 
L 662.249156 120.724807 
L 651.421777 120.724807 
L 651.421777 228.308828 
" clip-path="url(#pda336e3e12)" style="fill: none; stroke: #000000; stroke-width: 0.8; stroke-linejoin: miter"/>
   </g>
   <g id="patch_92">
    <path d="M 731.853736 228.308828 
L 731.853736 75.952956 
L 721.026357 75.952956 
L 721.026357 228.308828 
" clip-path="url(#pda336e3e12)" style="fill: none; stroke: #000000; stroke-width: 0.8; stroke-linejoin: miter"/>
   </g>
   <g id="patch_93">
    <path d="M 801.458316 228.308828 
L 801.458316 64.060433 
L 790.630937 64.060433 
L 790.630937 228.308828 
" clip-path="url(#pda336e3e12)" style="fill: none; stroke: #000000; stroke-width: 0.8; stroke-linejoin: miter"/>
   </g>
   <g id="patch_94">
    <path d="M 871.062895 228.308828 
L 871.062895 119.325687 
L 860.235516 119.325687 
L 860.235516 228.308828 
" clip-path="url(#pda336e3e12)" style="fill: none; stroke: #000000; stroke-width: 0.8; stroke-linejoin: miter"/>
   </g>
   <g id="patch_95">
    <path d="M 940.667475 228.308828 
L 940.667475 60.562632 
L 929.840096 60.562632 
L 929.840096 228.308828 
" clip-path="url(#pda336e3e12)" style="fill: none; stroke: #000000; stroke-width: 0.8; stroke-linejoin: miter"/>
   </g>
   <g id="patch_96">
    <path d="M 1010.272055 228.308828 
L 1010.272055 58.463952 
L 999.444676 58.463952 
L 999.444676 228.308828 
" clip-path="url(#pda336e3e12)" style="fill: none; stroke: #000000; stroke-width: 0.8; stroke-linejoin: miter"/>
   </g>
   <g id="patch_97">
    <path d="M 1079.876635 228.308828 
L 1079.876635 99.738002 
L 1069.049256 99.738002 
L 1069.049256 228.308828 
" clip-path="url(#pda336e3e12)" style="fill: none; stroke: #000000; stroke-width: 0.8; stroke-linejoin: miter"/>
   </g>
   <g id="patch_98">
    <path d="M 1149.481215 228.308828 
L 1149.481215 82.435547 
L 1138.653835 82.435547 
L 1138.653835 228.308828 
" clip-path="url(#pda336e3e12)" style="fill: none; stroke: #000000; stroke-width: 0.8; stroke-linejoin: miter"/>
   </g>
   <g id="patch_99">
    <path d="M 108.506055 234.053556 
L 119.333434 234.053556 
L 119.333434 53.56703 
L 108.506055 53.56703 
z
" clip-path="url(#pda336e3e12)" style="fill: url(#h973cbcc982); stroke: #9370db; stroke-width: 0.5; stroke-linejoin: miter"/>
   </g>
   <g id="patch_100">
    <path d="M 178.110635 234.053556 
L 188.938014 234.053556 
L 188.938014 29.082424 
L 178.110635 29.082424 
z
" clip-path="url(#pda336e3e12)" style="fill: url(#h973cbcc982); stroke: #9370db; stroke-width: 0.5; stroke-linejoin: miter"/>
   </g>
   <g id="patch_101">
    <path d="M 247.715214 234.053556 
L 258.542593 234.053556 
L 258.542593 68.257794 
L 247.715214 68.257794 
z
" clip-path="url(#pda336e3e12)" style="fill: url(#h973cbcc982); stroke: #9370db; stroke-width: 0.5; stroke-linejoin: miter"/>
   </g>
   <g id="patch_102">
    <path d="M 317.319794 234.053556 
L 328.147173 234.053556 
L 328.147173 92.04284 
L 317.319794 92.04284 
z
" clip-path="url(#pda336e3e12)" style="fill: url(#h973cbcc982); stroke: #9370db; stroke-width: 0.5; stroke-linejoin: miter"/>
   </g>
   <g id="patch_103">
    <path d="M 386.924374 234.053556 
L 397.751753 234.053556 
L 397.751753 77.352076 
L 386.924374 77.352076 
z
" clip-path="url(#pda336e3e12)" style="fill: url(#h973cbcc982); stroke: #9370db; stroke-width: 0.5; stroke-linejoin: miter"/>
   </g>
   <g id="patch_104">
    <path d="M 456.528954 234.053556 
L 467.356333 234.053556 
L 467.356333 108.132724 
L 456.528954 108.132724 
z
" clip-path="url(#pda336e3e12)" style="fill: url(#h973cbcc982); stroke: #9370db; stroke-width: 0.5; stroke-linejoin: miter"/>
   </g>
   <g id="patch_105">
    <path d="M 526.133533 234.053556 
L 536.960913 234.053556 
L 536.960913 121.424367 
L 526.133533 121.424367 
z
" clip-path="url(#pda336e3e12)" style="fill: url(#h973cbcc982); stroke: #9370db; stroke-width: 0.5; stroke-linejoin: miter"/>
   </g>
   <g id="patch_106">
    <path d="M 595.738113 234.053556 
L 606.565492 234.053556 
L 606.565492 74.553836 
L 595.738113 74.553836 
z
" clip-path="url(#pda336e3e12)" style="fill: url(#h973cbcc982); stroke: #9370db; stroke-width: 0.5; stroke-linejoin: miter"/>
   </g>
   <g id="patch_107">
    <path d="M 665.342693 234.053556 
L 676.170072 234.053556 
L 676.170072 105.334483 
L 665.342693 105.334483 
z
" clip-path="url(#pda336e3e12)" style="fill: url(#h973cbcc982); stroke: #9370db; stroke-width: 0.5; stroke-linejoin: miter"/>
   </g>
   <g id="patch_108">
    <path d="M 734.947273 234.053556 
L 745.774652 234.053556 
L 745.774652 115.827886 
L 734.947273 115.827886 
z
" clip-path="url(#pda336e3e12)" style="fill: url(#h973cbcc982); stroke: #9370db; stroke-width: 0.5; stroke-linejoin: miter"/>
   </g>
   <g id="patch_109">
    <path d="M 804.551853 234.053556 
L 815.379232 234.053556 
L 815.379232 71.056035 
L 804.551853 71.056035 
z
" clip-path="url(#pda336e3e12)" style="fill: url(#h973cbcc982); stroke: #9370db; stroke-width: 0.5; stroke-linejoin: miter"/>
   </g>
   <g id="patch_110">
    <path d="M 874.156432 234.053556 
L 884.983811 234.053556 
L 884.983811 101.836682 
L 874.156432 101.836682 
z
" clip-path="url(#pda336e3e12)" style="fill: url(#h973cbcc982); stroke: #9370db; stroke-width: 0.5; stroke-linejoin: miter"/>
   </g>
   <g id="patch_111">
    <path d="M 943.761012 234.053556 
L 954.588391 234.053556 
L 954.588391 80.849877 
L 943.761012 80.849877 
z
" clip-path="url(#pda336e3e12)" style="fill: url(#h973cbcc982); stroke: #9370db; stroke-width: 0.5; stroke-linejoin: miter"/>
   </g>
   <g id="patch_112">
    <path d="M 1013.365592 234.053556 
L 1024.192971 234.053556 
L 1024.192971 68.257794 
L 1013.365592 68.257794 
z
" clip-path="url(#pda336e3e12)" style="fill: url(#h973cbcc982); stroke: #9370db; stroke-width: 0.5; stroke-linejoin: miter"/>
   </g>
   <g id="patch_113">
    <path d="M 1082.970172 234.053556 
L 1093.797551 234.053556 
L 1093.797551 99.038442 
L 1082.970172 99.038442 
z
" clip-path="url(#pda336e3e12)" style="fill: url(#h973cbcc982); stroke: #9370db; stroke-width: 0.5; stroke-linejoin: miter"/>
   </g>
   <g id="patch_114">
    <path d="M 1152.574751 234.053556 
L 1163.402131 234.053556 
L 1163.402131 84.440953 
L 1152.574751 84.440953 
z
" clip-path="url(#pda336e3e12)" style="fill: url(#h973cbcc982); stroke: #9370db; stroke-width: 0.5; stroke-linejoin: miter"/>
   </g>
   <g id="patch_115">
    <path d="M 119.333434 228.308828 
L 119.333434 53.56703 
L 108.506055 53.56703 
L 108.506055 228.308828 
" clip-path="url(#pda336e3e12)" style="fill: none; stroke: #000000; stroke-width: 0.8; stroke-linejoin: miter"/>
   </g>
   <g id="patch_116">
    <path d="M 188.938014 228.308828 
L 188.938014 29.082424 
L 178.110635 29.082424 
L 178.110635 228.308828 
" clip-path="url(#pda336e3e12)" style="fill: none; stroke: #000000; stroke-width: 0.8; stroke-linejoin: miter"/>
   </g>
   <g id="patch_117">
    <path d="M 258.542593 228.308828 
L 258.542593 68.257794 
L 247.715214 68.257794 
L 247.715214 228.308828 
" clip-path="url(#pda336e3e12)" style="fill: none; stroke: #000000; stroke-width: 0.8; stroke-linejoin: miter"/>
   </g>
   <g id="patch_118">
    <path d="M 328.147173 228.308828 
L 328.147173 92.04284 
L 317.319794 92.04284 
L 317.319794 228.308828 
" clip-path="url(#pda336e3e12)" style="fill: none; stroke: #000000; stroke-width: 0.8; stroke-linejoin: miter"/>
   </g>
   <g id="patch_119">
    <path d="M 397.751753 228.308828 
L 397.751753 77.352076 
L 386.924374 77.352076 
L 386.924374 228.308828 
" clip-path="url(#pda336e3e12)" style="fill: none; stroke: #000000; stroke-width: 0.8; stroke-linejoin: miter"/>
   </g>
   <g id="patch_120">
    <path d="M 467.356333 228.308828 
L 467.356333 108.132724 
L 456.528954 108.132724 
L 456.528954 228.308828 
" clip-path="url(#pda336e3e12)" style="fill: none; stroke: #000000; stroke-width: 0.8; stroke-linejoin: miter"/>
   </g>
   <g id="patch_121">
    <path d="M 536.960913 228.308828 
L 536.960913 121.424367 
L 526.133533 121.424367 
L 526.133533 228.308828 
" clip-path="url(#pda336e3e12)" style="fill: none; stroke: #000000; stroke-width: 0.8; stroke-linejoin: miter"/>
   </g>
   <g id="patch_122">
    <path d="M 606.565492 228.308828 
L 606.565492 74.553836 
L 595.738113 74.553836 
L 595.738113 228.308828 
" clip-path="url(#pda336e3e12)" style="fill: none; stroke: #000000; stroke-width: 0.8; stroke-linejoin: miter"/>
   </g>
   <g id="patch_123">
    <path d="M 676.170072 228.308828 
L 676.170072 105.334483 
L 665.342693 105.334483 
L 665.342693 228.308828 
" clip-path="url(#pda336e3e12)" style="fill: none; stroke: #000000; stroke-width: 0.8; stroke-linejoin: miter"/>
   </g>
   <g id="patch_124">
    <path d="M 745.774652 228.308828 
L 745.774652 115.827886 
L 734.947273 115.827886 
L 734.947273 228.308828 
" clip-path="url(#pda336e3e12)" style="fill: none; stroke: #000000; stroke-width: 0.8; stroke-linejoin: miter"/>
   </g>
   <g id="patch_125">
    <path d="M 815.379232 228.308828 
L 815.379232 71.056035 
L 804.551853 71.056035 
L 804.551853 228.308828 
" clip-path="url(#pda336e3e12)" style="fill: none; stroke: #000000; stroke-width: 0.8; stroke-linejoin: miter"/>
   </g>
   <g id="patch_126">
    <path d="M 884.983811 228.308828 
L 884.983811 101.836682 
L 874.156432 101.836682 
L 874.156432 228.308828 
" clip-path="url(#pda336e3e12)" style="fill: none; stroke: #000000; stroke-width: 0.8; stroke-linejoin: miter"/>
   </g>
   <g id="patch_127">
    <path d="M 954.588391 228.308828 
L 954.588391 80.849877 
L 943.761012 80.849877 
L 943.761012 228.308828 
" clip-path="url(#pda336e3e12)" style="fill: none; stroke: #000000; stroke-width: 0.8; stroke-linejoin: miter"/>
   </g>
   <g id="patch_128">
    <path d="M 1024.192971 228.308828 
L 1024.192971 68.257794 
L 1013.365592 68.257794 
L 1013.365592 228.308828 
" clip-path="url(#pda336e3e12)" style="fill: none; stroke: #000000; stroke-width: 0.8; stroke-linejoin: miter"/>
   </g>
   <g id="patch_129">
    <path d="M 1093.797551 228.308828 
L 1093.797551 99.038442 
L 1082.970172 99.038442 
L 1082.970172 228.308828 
" clip-path="url(#pda336e3e12)" style="fill: none; stroke: #000000; stroke-width: 0.8; stroke-linejoin: miter"/>
   </g>
   <g id="patch_130">
    <path d="M 1163.402131 228.308828 
L 1163.402131 84.440953 
L 1152.574751 84.440953 
L 1152.574751 228.308828 
" clip-path="url(#pda336e3e12)" style="fill: none; stroke: #000000; stroke-width: 0.8; stroke-linejoin: miter"/>
   </g>
   <g id="patch_131">
    <path d="M 55.776719 199.075547 
L 55.776719 24.115547 
" style="fill: none; stroke: #000000; stroke-linejoin: miter; stroke-linecap: square"/>
   </g>
   <g id="patch_132">
    <path d="M 1174.368719 199.075547 
L 1174.368719 24.115547 
" style="fill: none; stroke: #000000; stroke-linejoin: miter; stroke-linecap: square"/>
   </g>
   <g id="patch_133">
    <path d="M 55.776719 199.075547 
L 1174.368719 199.075547 
" style="fill: none; stroke: #000000; stroke-linejoin: miter; stroke-linecap: square"/>
   </g>
   <g id="patch_134">
    <path d="M 55.776719 24.115547 
L 1174.368719 24.115547 
" style="fill: none; stroke: #000000; stroke-linejoin: miter; stroke-linecap: square"/>
   </g>
  </g>
  <g id="legend_1">
   <g id="patch_135">
    <path d="M 324.823554 16.06688 
L 353.823554 16.06688 
L 353.823554 4.03188 
L 324.823554 4.03188 
z
" style="fill: url(#h4e927365d5); stroke: #008000; stroke-width: 0.5; stroke-linejoin: miter"/>
   </g>
   <g id="patch_136">
    <path d="M 324.823554 16.06688 
L 353.823554 16.06688 
L 353.823554 4.03188 
L 324.823554 4.03188 
L 324.823554 16.06688 
z
" style="fill: none; stroke: #000000; stroke-width: 0.8; stroke-linejoin: miter"/>
   </g>
   <g id="text_24">
    <!-- BRAMAC-1DA -->
    <g transform="translate(365.423554 15.05188)scale(0.145 -0.145)">
     <defs>
      <path id="DejaVuSans-42" d="M 1259 2228 
L 1259 519 
L 2272 519 
Q 2781 519 3026 730 
Q 3272 941 3272 1375 
Q 3272 1813 3026 2020 
Q 2781 2228 2272 2228 
L 1259 2228 
z
M 1259 4147 
L 1259 2741 
L 2194 2741 
Q 2656 2741 2882 2914 
Q 3109 3088 3109 3444 
Q 3109 3797 2882 3972 
Q 2656 4147 2194 4147 
L 1259 4147 
z
M 628 4666 
L 2241 4666 
Q 2963 4666 3353 4366 
Q 3744 4066 3744 3513 
Q 3744 3084 3544 2831 
Q 3344 2578 2956 2516 
Q 3422 2416 3680 2098 
Q 3938 1781 3938 1306 
Q 3938 681 3513 340 
Q 3088 0 2303 0 
L 628 0 
L 628 4666 
z
" transform="scale(0.015625)"/>
      <path id="DejaVuSans-52" d="M 2841 2188 
Q 3044 2119 3236 1894 
Q 3428 1669 3622 1275 
L 4263 0 
L 3584 0 
L 2988 1197 
Q 2756 1666 2539 1819 
Q 2322 1972 1947 1972 
L 1259 1972 
L 1259 0 
L 628 0 
L 628 4666 
L 2053 4666 
Q 2853 4666 3247 4331 
Q 3641 3997 3641 3322 
Q 3641 2881 3436 2590 
Q 3231 2300 2841 2188 
z
M 1259 4147 
L 1259 2491 
L 2053 2491 
Q 2509 2491 2742 2702 
Q 2975 2913 2975 3322 
Q 2975 3731 2742 3939 
Q 2509 4147 2053 4147 
L 1259 4147 
z
" transform="scale(0.015625)"/>
      <path id="DejaVuSans-41" d="M 2188 4044 
L 1331 1722 
L 3047 1722 
L 2188 4044 
z
M 1831 4666 
L 2547 4666 
L 4325 0 
L 3669 0 
L 3244 1197 
L 1141 1197 
L 716 0 
L 50 0 
L 1831 4666 
z
" transform="scale(0.015625)"/>
      <path id="DejaVuSans-43" d="M 4122 4306 
L 4122 3641 
Q 3803 3938 3442 4084 
Q 3081 4231 2675 4231 
Q 1875 4231 1450 3742 
Q 1025 3253 1025 2328 
Q 1025 1406 1450 917 
Q 1875 428 2675 428 
Q 3081 428 3442 575 
Q 3803 722 4122 1019 
L 4122 359 
Q 3791 134 3420 21 
Q 3050 -91 2638 -91 
Q 1578 -91 968 557 
Q 359 1206 359 2328 
Q 359 3453 968 4101 
Q 1578 4750 2638 4750 
Q 3056 4750 3426 4639 
Q 3797 4528 4122 4306 
z
" transform="scale(0.015625)"/>
      <path id="DejaVuSans-44" d="M 1259 4147 
L 1259 519 
L 2022 519 
Q 2988 519 3436 956 
Q 3884 1394 3884 2338 
Q 3884 3275 3436 3711 
Q 2988 4147 2022 4147 
L 1259 4147 
z
M 628 4666 
L 1925 4666 
Q 3281 4666 3915 4102 
Q 4550 3538 4550 2338 
Q 4550 1131 3912 565 
Q 3275 0 1925 0 
L 628 0 
L 628 4666 
z
" transform="scale(0.015625)"/>
     </defs>
     <use xlink:href="#DejaVuSans-42"/>
     <use xlink:href="#DejaVuSans-52" x="68.603516"/>
     <use xlink:href="#DejaVuSans-41" x="134.085938"/>
     <use xlink:href="#DejaVuSans-4d" x="202.494141"/>
     <use xlink:href="#DejaVuSans-41" x="288.773438"/>
     <use xlink:href="#DejaVuSans-43" x="355.431641"/>
     <use xlink:href="#DejaVuSans-2d" x="425.255859"/>
     <use xlink:href="#DejaVuSans-31" x="461.339844"/>
     <use xlink:href="#DejaVuSans-44" x="524.962891"/>
     <use xlink:href="#DejaVuSans-41" x="600.214844"/>
    </g>
   </g>
   <g id="patch_137">
    <path d="M 491.374179 16.06688 
L 520.374179 16.06688 
L 520.374179 4.03188 
L 491.374179 4.03188 
z
" style="fill: url(#hfc5cd4f3ae); stroke: #ffa500; stroke-width: 0.5; stroke-linejoin: miter"/>
   </g>
   <g id="patch_138">
    <path d="M 491.374179 16.06688 
L 520.374179 16.06688 
L 520.374179 4.03188 
L 491.374179 4.03188 
L 491.374179 16.06688 
z
" style="fill: none; stroke: #000000; stroke-width: 0.8; stroke-linejoin: miter"/>
   </g>
   <g id="text_25">
    <!-- BRAMAC-2SA -->
    <g transform="translate(531.974179 15.05188)scale(0.145 -0.145)">
     <defs>
      <path id="DejaVuSans-53" d="M 3425 4513 
L 3425 3897 
Q 3066 4069 2747 4153 
Q 2428 4238 2131 4238 
Q 1616 4238 1336 4038 
Q 1056 3838 1056 3469 
Q 1056 3159 1242 3001 
Q 1428 2844 1947 2747 
L 2328 2669 
Q 3034 2534 3370 2195 
Q 3706 1856 3706 1288 
Q 3706 609 3251 259 
Q 2797 -91 1919 -91 
Q 1588 -91 1214 -16 
Q 841 59 441 206 
L 441 856 
Q 825 641 1194 531 
Q 1563 422 1919 422 
Q 2459 422 2753 634 
Q 3047 847 3047 1241 
Q 3047 1584 2836 1778 
Q 2625 1972 2144 2069 
L 1759 2144 
Q 1053 2284 737 2584 
Q 422 2884 422 3419 
Q 422 4038 858 4394 
Q 1294 4750 2059 4750 
Q 2388 4750 2728 4690 
Q 3069 4631 3425 4513 
z
" transform="scale(0.015625)"/>
     </defs>
     <use xlink:href="#DejaVuSans-42"/>
     <use xlink:href="#DejaVuSans-52" x="68.603516"/>
     <use xlink:href="#DejaVuSans-41" x="134.085938"/>
     <use xlink:href="#DejaVuSans-4d" x="202.494141"/>
     <use xlink:href="#DejaVuSans-41" x="288.773438"/>
     <use xlink:href="#DejaVuSans-43" x="355.431641"/>
     <use xlink:href="#DejaVuSans-2d" x="425.255859"/>
     <use xlink:href="#DejaVuSans-32" x="461.339844"/>
     <use xlink:href="#DejaVuSans-53" x="524.962891"/>
     <use xlink:href="#DejaVuSans-41" x="590.314453"/>
    </g>
   </g>
   <g id="patch_139">
    <path d="M 656.490663 16.06688 
L 685.490663 16.06688 
L 685.490663 4.03188 
L 656.490663 4.03188 
z
" style="fill: url(#hccbe1bc988); stroke: #ff4040; stroke-width: 0.5; stroke-linejoin: miter"/>
   </g>
   <g id="patch_140">
    <path d="M 656.490663 16.06688 
L 685.490663 16.06688 
L 685.490663 4.03188 
L 656.490663 4.03188 
L 656.490663 16.06688 
z
" style="fill: none; stroke: #000000; stroke-width: 0.8; stroke-linejoin: miter"/>
   </g>
   <g id="text_26">
    <!-- M4BRAM-S -->
    <g transform="translate(697.090663 15.05188)scale(0.145 -0.145)">
     <use xlink:href="#DejaVuSans-4d"/>
     <use xlink:href="#DejaVuSans-34" x="86.279297"/>
     <use xlink:href="#DejaVuSans-42" x="149.902344"/>
     <use xlink:href="#DejaVuSans-52" x="218.505859"/>
     <use xlink:href="#DejaVuSans-41" x="283.988281"/>
     <use xlink:href="#DejaVuSans-4d" x="352.396484"/>
     <use xlink:href="#DejaVuSans-2d" x="438.675781"/>
     <use xlink:href="#DejaVuSans-53" x="474.759766"/>
    </g>
   </g>
   <g id="patch_141">
    <path d="M 804.136913 16.06688 
L 833.136913 16.06688 
L 833.136913 4.03188 
L 804.136913 4.03188 
z
" style="fill: url(#h973cbcc982); stroke: #9370db; stroke-width: 0.5; stroke-linejoin: miter"/>
   </g>
   <g id="patch_142">
    <path d="M 804.136913 16.06688 
L 833.136913 16.06688 
L 833.136913 4.03188 
L 804.136913 4.03188 
L 804.136913 16.06688 
z
" style="fill: none; stroke: #000000; stroke-width: 0.8; stroke-linejoin: miter"/>
   </g>
   <g id="text_27">
    <!-- M4BRAM-L -->
    <g transform="translate(844.736913 15.05188)scale(0.145 -0.145)">
     <defs>
      <path id="DejaVuSans-4c" d="M 628 4666 
L 1259 4666 
L 1259 531 
L 3531 531 
L 3531 0 
L 628 0 
L 628 4666 
z
" transform="scale(0.015625)"/>
     </defs>
     <use xlink:href="#DejaVuSans-4d"/>
     <use xlink:href="#DejaVuSans-34" x="86.279297"/>
     <use xlink:href="#DejaVuSans-42" x="149.902344"/>
     <use xlink:href="#DejaVuSans-52" x="218.505859"/>
     <use xlink:href="#DejaVuSans-41" x="283.988281"/>
     <use xlink:href="#DejaVuSans-4d" x="352.396484"/>
     <use xlink:href="#DejaVuSans-2d" x="438.675781"/>
     <use xlink:href="#DejaVuSans-4c" x="474.759766"/>
    </g>
   </g>
  </g>
 </g>
 <defs>
  <clipPath id="pda336e3e12">
   <rect x="55.776719" y="24.115547" width="1118.592" height="174.96"/>
  </clipPath>
 </defs>
 <defs>
  <pattern id="h4e927365d5" patternUnits="userSpaceOnUse" x="0" y="0" width="72" height="72">
   <rect x="0" y="0" width="73" height="73" fill="#ffffff"/>
   <path d="M -36 36 
L 36 -36 
M -33 39 
L 39 -33 
M -30 42 
L 42 -30 
M -27 45 
L 45 -27 
M -24 48 
L 48 -24 
M -21 51 
L 51 -21 
M -18 54 
L 54 -18 
M -15 57 
L 57 -15 
M -12 60 
L 60 -12 
M -9 63 
L 63 -9 
M -6 66 
L 66 -6 
M -3 69 
L 69 -3 
M 0 72 
L 72 0 
M 3 75 
L 75 3 
M 6 78 
L 78 6 
M 9 81 
L 81 9 
M 12 84 
L 84 12 
M 15 87 
L 87 15 
M 18 90 
L 90 18 
M 21 93 
L 93 21 
M 24 96 
L 96 24 
M 27 99 
L 99 27 
M 30 102 
L 102 30 
M 33 105 
L 105 33 
M 36 108 
L 108 36 
" style="fill: #008000; stroke: #008000; stroke-width: 1.0; stroke-linecap: butt; stroke-linejoin: miter"/>
  </pattern>
  <pattern id="hfc5cd4f3ae" patternUnits="userSpaceOnUse" x="0" y="0" width="72" height="72">
   <rect x="0" y="0" width="73" height="73" fill="#ffffff"/>
   <path d="M 0 70 
L 72 70 
M 0 66 
L 72 66 
M 0 62 
L 72 62 
M 0 58 
L 72 58 
M 0 54 
L 72 54 
M 0 50 
L 72 50 
M 0 46 
L 72 46 
M 0 42 
L 72 42 
M 0 38 
L 72 38 
M 0 34 
L 72 34 
M 0 30 
L 72 30 
M 0 26 
L 72 26 
M 0 22 
L 72 22 
M 0 18 
L 72 18 
M 0 14 
L 72 14 
M 0 10 
L 72 10 
M 0 6 
L 72 6 
M 0 2 
L 72 2 
" style="fill: #ffa500; stroke: #ffa500; stroke-width: 1.0; stroke-linecap: butt; stroke-linejoin: miter"/>
  </pattern>
  <pattern id="hccbe1bc988" patternUnits="userSpaceOnUse" x="0" y="0" width="72" height="72">
   <rect x="0" y="0" width="73" height="73" fill="#ffffff"/>
   <path d="M -36 36 
L 36 -36 
M -33 39 
L 39 -33 
M -30 42 
L 42 -30 
M -27 45 
L 45 -27 
M -24 48 
L 48 -24 
M -21 51 
L 51 -21 
M -18 54 
L 54 -18 
M -15 57 
L 57 -15 
M -12 60 
L 60 -12 
M -9 63 
L 63 -9 
M -6 66 
L 66 -6 
M -3 69 
L 69 -3 
M 0 72 
L 72 0 
M 3 75 
L 75 3 
M 6 78 
L 78 6 
M 9 81 
L 81 9 
M 12 84 
L 84 12 
M 15 87 
L 87 15 
M 18 90 
L 90 18 
M 21 93 
L 93 21 
M 24 96 
L 96 24 
M 27 99 
L 99 27 
M 30 102 
L 102 30 
M 33 105 
L 105 33 
M 36 108 
L 108 36 
M -36 36 
L 36 108 
M -33 33 
L 39 105 
M -30 30 
L 42 102 
M -27 27 
L 45 99 
M -24 24 
L 48 96 
M -21 21 
L 51 93 
M -18 18 
L 54 90 
M -15 15 
L 57 87 
M -12 12 
L 60 84 
M -9 9 
L 63 81 
M -6 6 
L 66 78 
M -3 3 
L 69 75 
M 0 0 
L 72 72 
M 3 -3 
L 75 69 
M 6 -6 
L 78 66 
M 9 -9 
L 81 63 
M 12 -12 
L 84 60 
M 15 -15 
L 87 57 
M 18 -18 
L 90 54 
M 21 -21 
L 93 51 
M 24 -24 
L 96 48 
M 27 -27 
L 99 45 
M 30 -30 
L 102 42 
M 33 -33 
L 105 39 
M 36 -36 
L 108 36 
" style="fill: #ff4040; stroke: #ff4040; stroke-width: 1.0; stroke-linecap: butt; stroke-linejoin: miter"/>
  </pattern>
  <pattern id="h973cbcc982" patternUnits="userSpaceOnUse" x="0" y="0" width="72" height="72">
   <rect x="0" y="0" width="73" height="73" fill="#ffffff"/>
   <path d="M 0 70 
L 72 70 
M 0 66 
L 72 66 
M 0 62 
L 72 62 
M 0 58 
L 72 58 
M 0 54 
L 72 54 
M 0 50 
L 72 50 
M 0 46 
L 72 46 
M 0 42 
L 72 42 
M 0 38 
L 72 38 
M 0 34 
L 72 34 
M 0 30 
L 72 30 
M 0 26 
L 72 26 
M 0 22 
L 72 22 
M 0 18 
L 72 18 
M 0 14 
L 72 14 
M 0 10 
L 72 10 
M 0 6 
L 72 6 
M 0 2 
L 72 2 
M 2 72 
L 2 0 
M 6 72 
L 6 0 
M 10 72 
L 10 0 
M 14 72 
L 14 0 
M 18 72 
L 18 0 
M 22 72 
L 22 0 
M 26 72 
L 26 0 
M 30 72 
L 30 0 
M 34 72 
L 34 0 
M 38 72 
L 38 0 
M 42 72 
L 42 0 
M 46 72 
L 46 0 
M 50 72 
L 50 0 
M 54 72 
L 54 0 
M 58 72 
L 58 0 
M 62 72 
L 62 0 
M 66 72 
L 66 0 
M 70 72 
L 70 0 
" style="fill: #9370db; stroke: #9370db; stroke-width: 1.0; stroke-linecap: butt; stroke-linejoin: miter"/>
  </pattern>
 </defs>
</svg>
